<svg width="289" height="111" viewBox="0 0 289 111" fill="none" xmlns="http://www.w3.org/2000/svg">
<g clip-path="url(#clip0_101_24)">
<path d="M80.6788 80.4699C80.1874 79.5152 79.6229 78.6002 78.9905 77.733L66.5448 57.6791C66.0034 56.6464 65.3884 55.6543 64.7046 54.7105C62.4254 51.5734 59.4545 49.0077 56.0239 47.214C52.5933 45.4203 48.796 44.4472 44.9286 44.3706C41.0613 44.294 37.2287 45.1161 33.7303 46.7726C30.2319 48.4291 27.1625 50.8752 24.7619 53.9196C23.639 55.3504 22.6765 56.901 21.8917 58.5434L10.4253 77.0269C9.38255 78.3284 8.49924 79.7508 7.79433 81.2636C6.52267 84.0009 5.86562 86.9852 5.86965 90.0055C5.86965 101.541 15.2876 110.893 26.9032 110.893C28.087 110.896 29.2691 110.802 30.4374 110.61C33.2601 110.138 35.9572 109.093 38.3638 107.539C40.7703 105.985 42.8357 103.955 44.4336 101.572V94.293H23.1749C20.9998 94.293 20.2259 93.5191 20.2259 91.333V87.7769C20.2259 85.4524 20.3666 84.6078 21.7708 82.9753L43.1026 57.4079C44.5095 55.7895 45.3537 55.2952 47.6639 55.2952H54.6113C56.7864 55.2952 57.5574 56.0691 57.5574 58.2524V83.4357H61.1366C63.3117 83.4357 64.0827 84.2096 64.0827 86.3929V91.3217C64.0827 93.5078 63.3117 94.2817 61.1366 94.2817H57.5574V110.438C57.8388 110.497 58.1202 110.557 58.4297 110.605C59.5971 110.796 60.7782 110.891 61.9611 110.887C73.5795 110.887 82.9975 101.535 82.9975 89.9998C83.001 86.6821 82.2055 83.4126 80.6788 80.4699Z" fill="#5C4536"/>
<path d="M45.0976 84.3339V72.4286L35.2744 84.3339H45.0976Z" fill="#5C4536"/>
<path d="M30.7413 33.2896C36.8456 33.2896 41.7941 25.8374 41.7941 16.6448C41.7941 7.45212 36.8456 0 30.7413 0C24.637 0 19.6885 7.45212 19.6885 16.6448C19.6885 25.8374 24.637 33.2896 30.7413 33.2896Z" fill="#5C4536"/>
<path d="M18.3711 54.8999C24.0107 52.5551 25.7415 43.7693 22.2369 35.2764C18.7323 26.7835 11.3194 21.7996 5.67974 24.1444C0.040098 26.4893 -1.69068 35.275 1.81394 43.7679C5.31856 52.2608 12.7315 57.2448 18.3711 54.8999Z" fill="#5C4536"/>
<path d="M86.6197 43.7658C90.1243 35.2729 88.3936 26.4872 82.7539 24.1423C77.1143 21.7974 69.7014 26.7814 66.1968 35.2743C62.6921 43.7672 64.4229 52.553 70.0626 54.8978C75.7022 57.2427 83.1151 52.2587 86.6197 43.7658Z" fill="#5C4536"/>
<path d="M58.3766 33.2896C64.4809 33.2896 69.4294 25.8374 69.4294 16.6448C69.4294 7.45212 64.4809 0 58.3766 0C52.2723 0 47.3237 7.45212 47.3237 16.6448C47.3237 25.8374 52.2723 33.2896 58.3766 33.2896Z" fill="#5C4536"/>
<path d="M94.1772 60.9866V105.368C94.1772 106.839 94.7595 108.25 95.7959 109.291C96.8323 110.331 98.238 110.915 99.7037 110.915C101.169 110.915 102.575 110.331 103.611 109.291C104.648 108.25 105.23 106.839 105.23 105.368V87.777C107.8 88.6856 110.554 88.9444 113.247 88.5303C115.941 88.1163 118.491 87.0423 120.672 85.4033C122.854 83.7643 124.599 81.6109 125.754 79.1336C126.909 76.6563 127.438 73.9314 127.294 71.2001C127.15 68.4688 126.337 65.8152 124.928 63.4742C123.519 61.1331 121.557 59.1768 119.215 57.7783C116.873 56.3797 114.224 55.5821 111.502 55.4559C108.78 55.3297 106.069 55.879 103.609 57.0549C102.915 56.3574 102.049 55.8581 101.098 55.6083C100.148 55.3585 99.1491 55.3672 98.2035 55.6335C97.2579 55.8999 96.4 56.4142 95.7181 57.1238C95.0362 57.8333 94.5548 58.7123 94.3236 59.6704M110.908 77.4648C109.846 77.4653 108.808 77.1497 107.925 76.5579C107.042 75.9661 106.353 75.1246 105.946 74.1399C105.539 73.1552 105.433 72.0716 105.64 71.026C105.846 69.9804 106.358 69.0199 107.108 68.2659C107.859 67.512 108.816 66.9984 109.857 66.7902C110.899 66.5821 111.978 66.6886 112.96 67.0964C113.941 67.5042 114.779 68.195 115.369 69.0813C115.96 69.9676 116.274 71.0096 116.274 72.0756C116.276 73.5039 115.713 74.8744 114.708 75.886C113.703 76.8976 112.34 77.4674 110.917 77.4704L110.908 77.4648Z" fill="#5C4536"/>
<path d="M165.08 66.5396C163.962 63.3669 161.912 60.6093 159.2 58.6306C156.488 56.6519 153.242 55.5452 149.89 55.4566C146.539 55.3679 143.239 56.3015 140.427 58.1341C137.615 59.9666 135.423 62.6121 134.139 65.7212C132.856 68.8303 132.542 72.2569 133.239 75.5487C133.936 78.8406 135.611 81.843 138.043 84.1595C140.475 86.4761 143.55 87.998 146.861 88.5243C150.172 89.0506 153.565 88.5566 156.591 87.1076C157.365 87.8795 158.349 88.4044 159.42 88.616C160.49 88.8276 161.599 88.7166 162.607 88.2968C163.615 87.8771 164.477 87.1674 165.083 86.2571C165.69 85.3469 166.015 84.2768 166.017 83.1815V72.0869C166.021 70.1977 165.705 68.3218 165.08 66.5396ZM149.444 77.4732C148.382 77.4732 147.344 77.157 146.461 76.5648C145.578 75.9725 144.89 75.1306 144.483 74.1457C144.077 73.1608 143.971 72.0771 144.178 71.0316C144.386 69.9862 144.897 69.0259 145.648 68.2723C146.4 67.5188 147.356 67.0057 148.398 66.7981C149.44 66.5905 150.519 66.6976 151.5 67.1059C152.481 67.5143 153.32 68.2054 153.909 69.0921C154.499 69.9787 154.813 71.0209 154.813 72.0869C154.813 72.7945 154.674 73.4951 154.404 74.1488C154.134 74.8025 153.739 75.3964 153.24 75.8966C152.741 76.3968 152.149 76.7935 151.498 77.064C150.847 77.3345 150.149 77.4736 149.444 77.4732Z" fill="#5C4536"/>
<path d="M238.311 66.5396C237.193 63.3669 235.142 60.6093 232.43 58.6306C229.719 56.6519 226.473 55.5452 223.121 55.4566C219.769 55.3679 216.47 56.3015 213.658 58.1341C210.846 59.9666 208.654 62.6121 207.37 65.7212C206.087 68.8303 205.773 72.2569 206.47 75.5487C207.167 78.8406 208.842 81.843 211.274 84.1595C213.706 86.4761 216.78 87.998 220.092 88.5243C223.403 89.0506 226.796 88.5566 229.822 87.1076C230.596 87.8824 231.581 88.4098 232.653 88.6231C233.725 88.8364 234.835 88.726 235.845 88.3059C236.855 87.8858 237.717 87.1749 238.325 86.2628C238.932 85.3507 239.256 84.2785 239.257 83.1815V72.0869C239.258 70.1973 238.938 68.3212 238.311 66.5396ZM222.675 77.4732C221.613 77.4732 220.575 77.157 219.692 76.5648C218.809 75.9725 218.121 75.1306 217.714 74.1457C217.308 73.1608 217.202 72.0771 217.409 71.0316C217.617 69.9862 218.128 69.0259 218.879 68.2723C219.631 67.5188 220.587 67.0057 221.629 66.7981C222.671 66.5905 223.75 66.6976 224.731 67.1059C225.712 67.5143 226.551 68.2054 227.14 69.0921C227.73 69.9787 228.044 71.0209 228.044 72.0869C228.044 72.7945 227.905 73.4951 227.635 74.1488C227.365 74.8025 226.969 75.3964 226.471 75.8966C225.972 76.3968 225.38 76.7935 224.729 77.064C224.078 77.3345 223.38 77.4736 222.675 77.4732Z" fill="#5C4536"/>
<path d="M288.029 88.7345C287.196 86.4122 285.859 84.3045 284.116 82.5632C282.373 80.822 280.267 79.4906 277.95 78.6652C277.564 78.5268 277.176 78.4053 276.776 78.298C275.356 77.9085 273.89 77.7118 272.418 77.7133H261.359C261.037 77.7138 260.715 77.6854 260.397 77.6286C259.613 77.4903 258.868 77.186 258.21 76.736C257.553 76.2861 256.998 75.7007 256.583 75.0189C256.169 74.3372 255.904 73.5745 255.805 72.7818C255.707 71.9891 255.778 71.1845 256.014 70.4215C256.249 69.6585 256.644 68.9546 257.172 68.3566C257.699 67.7586 258.348 67.2803 259.074 66.9534C259.8 66.6265 260.587 66.4586 261.383 66.4608C262.179 66.4629 262.965 66.6352 263.689 66.9661C263.968 67.1671 264.266 67.3402 264.578 67.483C265.812 68.0483 267.21 68.1395 268.506 67.7393C269.802 67.3391 270.907 66.4753 271.611 65.3117C272.315 64.1481 272.569 62.7656 272.325 61.4264C272.082 60.0873 271.356 58.8845 270.288 58.0463C269.878 57.7247 269.424 57.4641 268.94 57.2724C265.985 55.7592 262.646 55.1694 259.354 55.5789C256.061 55.9885 252.967 57.3788 250.469 59.5703C247.972 61.7619 246.185 64.6543 245.341 67.8745C244.496 71.0948 244.632 74.4951 245.731 77.637C245.731 77.6681 245.751 77.6964 245.759 77.7218C246.664 80.245 248.161 82.5123 250.123 84.3315C252.086 86.1507 254.457 87.4682 257.034 88.1724C258.211 88.4964 259.42 88.6859 260.639 88.7373C260.887 88.7373 261.137 88.7543 261.388 88.7543C261.638 88.7543 261.886 88.7543 262.133 88.7373H273.417C274.712 88.9712 275.884 89.6544 276.728 90.6676C277.572 91.6809 278.034 92.9596 278.034 94.2804C278.034 95.6012 277.572 96.8799 276.728 97.8932C275.884 98.9064 274.712 99.5896 273.417 99.8235H271.447C270.677 99.688 269.945 99.3906 269.297 98.9507C269.107 98.7767 268.904 98.6171 268.689 98.4734C267.545 97.6885 266.148 97.3632 264.776 97.5616C263.404 97.76 262.156 98.4678 261.279 99.5452C260.401 100.622 259.958 101.991 260.037 103.38C260.116 104.769 260.712 106.078 261.705 107.049L261.734 107.074C261.976 107.309 262.239 107.52 262.522 107.704C264.936 109.512 267.798 110.621 270.797 110.912C271.329 110.966 271.872 110.992 272.418 110.992C272.964 110.992 273.507 110.966 274.039 110.912C276.547 110.662 278.966 109.841 281.112 108.512C283.258 107.183 285.074 105.381 286.422 103.243C287.77 101.104 288.616 98.6857 288.894 96.1705C289.173 93.6553 288.877 91.1094 288.029 88.726V88.7345Z" fill="#5C4536"/>
<path d="M195.546 77.6285H195.411H195.13C195.02 77.6285 194.91 77.6285 194.803 77.6285C193.456 77.555 192.182 76.9891 191.221 76.0374C190.261 75.0857 189.68 73.8141 189.589 72.4625V66.5311H195.155C196.471 66.5279 197.743 66.0564 198.745 65.2005C199.747 64.3446 200.414 63.1597 200.628 61.8565C200.726 61.2522 200.726 60.6361 200.628 60.0319C200.444 58.9223 199.931 57.8941 199.156 57.0818C198.381 56.2695 197.38 55.7108 196.284 55.4788C196.199 55.4618 196.115 55.4449 196.03 55.4336C195.444 55.3395 194.847 55.3395 194.26 55.4336H189.567V50.5896C189.627 50.1283 189.627 49.6612 189.567 49.1999C189.398 47.8479 188.744 46.6042 187.726 45.7024C186.708 44.8006 185.398 44.3027 184.04 44.3022C183.797 44.3025 183.553 44.3185 183.312 44.3503C182.09 44.5124 180.957 45.0764 180.089 45.9539C179.221 46.8313 178.667 47.9729 178.514 49.1999C178.454 49.6612 178.454 50.1283 178.514 50.5896V55.4392H173.756C173.23 55.36 172.695 55.36 172.169 55.4392C170.976 55.6116 169.872 56.1685 169.022 57.026C168.173 57.8834 167.624 58.9949 167.458 60.1929C167.391 60.7 167.391 61.2138 167.458 61.7209C167.645 63.0529 168.305 64.2723 169.316 65.1546C170.327 66.0369 171.622 66.5227 172.962 66.5226H178.514V72.0755C178.508 76.3902 180.174 80.5381 183.16 83.6418C186.146 86.7455 190.218 88.5617 194.514 88.7062C194.552 88.709 194.591 88.709 194.629 88.7062C194.951 88.7363 195.275 88.7363 195.597 88.7062C195.642 88.709 195.687 88.709 195.732 88.7062C196.995 88.5629 198.171 87.9888 199.063 87.0799C199.955 86.171 200.51 84.9824 200.634 83.7125C200.651 83.5355 200.659 83.3547 200.659 83.1702C200.659 82.9894 200.659 82.8058 200.634 82.6279C200.503 81.3284 199.923 80.1161 198.993 79.2025C198.063 78.2888 196.843 77.7318 195.546 77.6285Z" fill="#5C4536"/>
</g>
<defs>
<clipPath id="clip0_101_24">
<rect width="289" height="111" fill="white"/>
</clipPath>
</defs>
</svg>
